P2
# Written by pgmio::pgmwrite
96 64
255
119  25   6  27   3  13   3   4  42  33  16  13  17  17   7  17   3   3 
 17   0  10   3   3  21  14  21   3   7   0   6  14  33  39  33  36  19 
  1   3   8  25   1  16   4  15   1   5  10  15  11   3  20   8  11  28 
 11  12  14   9  13   9  17   9  13   3   5  26  53  21  26  33  21  17 
 45   0  11  35  52  32  31  55   7  22   9  23  17   6   9   3  27   0 
  7   4  21   3  14   7  68  40  22  15  14  11  25  28  21  11   7  17 
  3  43   2  35   3  10   7   3  21   7   7   3  27  21  29  45   1  21 
  5   4  32  25  32  25  21  22  23  15  18  14   7   6   8   9   6   1 
  9   4   7  28   7   9  10  18   8   0  11   2  18  14  10  19   3  27 
  3  34   3  30  28  15  12  41  21  37  37   7  16  36   1   8  15  15 
  3  18   7   3   9   8  10   4   4   0   3   3   4  27  27   3   7  25 
 24  13   3   3  21  21   7  35  28  24  20  12  20   0  14   4  13   3 
 20  17  25  37  20  10   1   6  21  12   7   3  12  21   3  24  33   4 
  0  21  16  14   1   1   2   3   3   9   2  11   7   5  12  15   3   0 
 17  21   4  11  13  21   3  65   3   9   2   2  20  12  11  18  13  47 
  1   2  25   3   6  55   4  28  30  20  31  37  36  14   3   7  17   1 
 48   7   2  13   3   9  14  10  16   3   3   1   2  28  16   5  29  15 
 18   3   6  18  15   5   7  19   3  18  29   3   6  16  27  12  28  33 
 23  39   9  37  15  27  30  10  34   3   4   9   1   5   5   7   2  15 
 19   4   5   1  13   9   1  12   9  11  14  15  24  58  15  12  39  35 
 24  10  23  17  26  32   3   6   8  10  17  22   5  34  23  41  62   7 
 39  15  10   3  55  17  26  15   9  17  22  10  10  38  23  15  13   9 
 34   5   3   6   3  23  12  35  23  29  35  11  14  33   2  21  11  11 
 17  30   0   2  10  23  39   4  41  36  29  24   8   8  33  15   9   6 
  3   6  15  17  17  25   2   5  12   5  12   9  22  13   2  15   5  15 
 28  24   9  12   4   1   3  22  35  25   7   2  10  27   8  17   1  11 
  9  19   2  33  13  16  15  20  27   2  29   5  26  15   2   5  21   7 
 14  13   8  21  18  13  29   3  15  14  10  23  18  40  18  23  31  34 
  2  27   9  18  12  15   2  21  21  34  33  30  37  42  13  12  39  13 
 13  21   3   6  15   3  17  10   1  10   0   6  36  13   0  47   4  14 
  3  23  15  18  26   9  10   4  16  14  47  11  10  10  42  29  20  34 
 11  12  16  21   9   9   4   9  25  15  15  26  28  47   2   9  20  21 
 46  14  14   5   5  15   3  10   3   3   5  15  23  19  19  24  10   9 
 15   1   8  15  11  23  14   2   8   9   2   2  14  10  32  33  63  21 
 29  37  18   5  33  16  18   7  26  10   2  22  14  15  48  33  16  11 
 25  10  34  20   3   3  17   7  14  15   5   3  33  18  33   8   4  15 
 27   4   2   9  33  13   1  21  15   7   7  21  13   3  15  27  10  15 
 21  24  12   3   0  15  44   7  24   9   5  10   5   3  21   3   5  23 
 15  21  14  10   6   6  16   8   8   3   9   4   7  11   6   6   4   8 
  6  19   5  13  18  55  10  22  11   7  10  12   3  13  16  21  22  40 
 21   3  21  39  27  28  35  24  31  10   4   4   2  26  27   8   9  23 
  6  44  14   1  18  19  22   4  15   2  25   2   9  12   3  32   7  10 
 20  43   9  15  36  23  13   2   9  14  44  13  15   0   2  15  10   5 
 15   5   0   8   8  15   5   3   3   5   8   5  12   3   4   9   4   0 
  0   4   9   9  15   6   2   8  32  13  37  49  39  15  10  40  37  15 
 34  27  21   9   5  54   8  48  15  15  16  27   2   7  14  16   4   1 
 31   3   9  17  20   2  10  12  55   7  16  33  13  33  21  37  18   2 
 34  38   1  22   9  15  38  31  21  14  18  20  44  40  33  34  41   9 
 38  10   5   5   5   5  10   3   5   0   5  10   1   3   3   3   0   2 
 20   9   4   4   0   0   9  13   9   9   9   4  26   3  37   3  44  30 
 42  25  31  22   5   1  33  17   9  17   3  10   9   8  29  15   9   3 
  7  44  38   3  25   9  24   9   1   8   6  12   7  32  25  17  25   6 
 37   3  19  45  56   7  11  56   5  15   0  28  12   1  38  13  43  17 
 28  34  14  10  29  39  24   5  15  15  15  15   5   5   5   0   0   6 
 17   4   0   0   0   0   9  17  13   4   4   4  17   9   4   9  13  13 
 17  13   4  17  51  52  15  33  31  14   1  14  26  37   3  56  27  12 
 10  16  34   9  33   0  19  17  44  34  24  21   1  14  16  50  56   5 
 40  14  36  14  25   3   3  18  10   2  14  15  15   8  13  17  16  18 
  9   5  20  19  53   6  22  44  28  19  46  61  21   5  21  10   0   3 
  5   8  10   3   4  17   9   0   4   0   0   0   4  13  13   4  17   4 
  4   0   4   0   9  17   9   0   7  78   1  75  27  13  30   5   3  21 
  7  17  10   0   8  44  25  21  11  27  11  39  33  25  14  14  17  14 
  7  28  14  13  63  21  12  34  23  12  13  65  18  15   7  10  18  50 
 77  21  58  23  64  56  35  39  14  24   9  55  35   5  27  49  21  49 
 17   3   3   0   3   5   3   0   3   0   0   4   0   4  17   9   4   4 
  9   9  17   4   4   0   0   4  17   4   0   0   4  13  12  50  40  21 
 21   3  18   6   5   6  11   3  31  50  21  30  15  11   3   5  13   2 
 16  21   9   8   0   3  25  34   5  17  27  44  53  11  19  33  20  22 
  6   5   5   4  21  29   3   4  18   4  23  62  43  11  15  28  26   8 
 12   4  43  14  34   7   9   8   5   5   5   3   0   0   0   4   0   4 
  0   0   9   9   9  13   4   0   4   0   0   4   4   0   4   0   4  17 
 13  20  92   2  73   5  21  34  26  14  11  62  42   7   4  62   1  15 
 57   9   4  16   5   6   9   3  28   1   4   7   6  21  21  25  15  10 
  3  26  59  17  67  11  11  11  15  10  21  33  15  32  15  59  12  66 
 20   6  53  56  68  26  36   5  69  89  26   6  21  10   3   3   3   4 
  4   0   4  13  13  13   9   4   4   4   0   4   0   0   0   0   9  21 
 26   4   0   0   0   9  17  19  72  85  32  23   2   1  25   6  55  15 
 21  17  29   1   0   7   5   0   3  28   3   0  43  21   1  13  29   3 
 10  28  20  11  51  27  34  25  23  17  33  27   6  36  21  17  49   1 
 36   7  31  47   8  34  42  12  36  55  25  47  33  20   8   9  74   9 
  1   5   0   0   9  13  13   4   4   4   4   0   0   9   9   0   0   0 
  0   0   0   4  13  17  21   0   0   0   0   0   4  89  21  70   3   2 
 44   1  33   5  41  41   7  33  46  53  16  10   5   3   3  41  10  34 
 36  15  16  34   5  26  61   9  45   5  44   3  27  14   4  31  12  12 
 22   7   1   4   7  33  27   2  68  39  30   3  37   6   3  37  61  13 
 12   5  43  18  54  26   9   0   4   4  17   9   4   0   4   4   0   0 
 17   0  17  21   4   0   4   0   0   4   9  13   4  13   4   0   0   4 
 39  79 108  31  27  30  53  17  19   0  21  17   1  33  33  16  41  25 
 27  34  10  27  21   3  33  21  26  60  27  41  12  20   5  12  15   6 
 15   4  14  13   5  19  31   2  27  14   3   2  26  21   0  39  29   6 
  9   9  41  14   3  24  46  45   4  40   3  30   3   4  17   4   4   0 
  0   4   4   9   9  13   0   0   0   4   4   4  17   4   0   4   0   4 
  9  13   9   4   0   3  74  79  52  26  18  22  15   7  14  14  38  13 
 40  56   4  21   9  17  10   9  15  17  12   3   9  15  50   3   1  23 
 33  31  21   1  16  18  14   0  17  16  21  13  47  33  16  29   3  15 
  9  29  12  23  33  31  43  65   9   0  22  41  13  43  17   2   5  15 
  5   0   4   0   0   0   4  17   4   4   4   4   4   4  17   0  17   4 
  4   0   4   9   9  13  17  13   9  13  15  46  35  88   8  27  18   8 
 53  33  14  14   1   6  25   5   3  23   9  15  37  39  17  19  49  17 
 18  22  21  21  33  20  11   9  33  10  13   3  12  19  42  61  22   4 
 19  27  12  21  10  22  18  20   8   2  58  23   6   2  34   8  33  74 
 13  21  40  32  15  14  13   4   0   4   0   0   0   9   0   0   4   4 
  9   0   0   4   4   4   0   4   9   9   4   9  13   9   9  17   3  81 
 34  54  11   0   8   8  29  10   3  48  19   1  22  13  11  33  16   4 
  3  27   3  30  55  56  39  33  37   7  18  16  17  15  22  16   4  13 
  7  13   3  25  21  19  41  16   4   3   9   9  28  14  11  28  43  21 
 18  18  54  21  25  39  28   5  66  39  34   4  12   0   4  17   9   0 
  4  17   4   9  17   4   9   9  13  13   9  13   9  13  13  13   9   9 
  4   4   0   6  18  50  88  15  15  24  19  27   3  37  51  50  49  24 
 11  21   1  27  61  14   9   7  43  66  56  33   3   5   9   3   5  27 
 38  11   6  20   9  30  14  27  24   9  31   4   6  50  26  20   8  10 
 19  35  38  22  28  40  12  41  39  50  15  32  10  10  21   8   7  27 
 11   0   4   9  17   4   0   4   4  17   9   0   9   9   4   9   9  13 
  9   9   9  13   4  13   9   0   4  25  66   1  39   3  12  37   4   7 
  3  25  55  11  27  21  71   9  10   4  38  22  56  29   6   5  54  27 
 22  16   6   7  10  24  21   5  10   3   3  28  30  18  35  37  38   9 
 21  36  14  26  26  12   4  13   5  10  52  33  39  47  17  11  29   3 
 21  18  15  20   5  15  15   2  17   4   4   4   0   0   0   4   0   4 
 17  13   9   9   9  17   9   9  13   9  13  13  17   4   0   2  63  73 
 31   8  14   3  30  39  21   7  36  16   3   0  15   3   5   9   9  38 
 19   2   8   2  19  15   3  15   5  38   9  16   3   6   7  15  27   2 
 21   8   9  21   4   6  32   5   5  29  30   2  24   3   3  19  20  15 
  3  35  26  42  16   9  70  84  25   3  44  15  13  10   2   0   4  17 
  4   3   3   3   3   3   4   4  15   4   4   4   0   4   4   4   4   0 
  4   0   0   3  80  45  25   7  10  37  14  14  10   5   4   7   4   9 
 14   1  13  25   9  15   6  24   0   0  30  15   9   1   6   9  25   3 
  7  17  24  29  28   6   3   9  21   1  21   5   5   5   5  13  17   8 
  2   0   0   2  15  11  10  15  25  21  74  39  15  60  12   9  22  14 
 29   5   0   0   0   4   3   5   3   3   3   5   3   5  15   2  17   4 
  4  17   9  17   4   0   4   0   3  25  19  63  17   8  15  27   4  19 
  4  24  19   4  21  26  15   9  17  50   9  33  21  21   1   2   9  34 
 16  23  22  14   2   7  15  39   0  14  21   8  10   3   3  21  10   5 
 10  21  15   7  27   7   0   0   5  21  31  27  56  88  56  48 109  31 
  6  11  10  22  42  18  25   5   3   0   3   3   5   3   0   0   0   3 
  8   8   8   0   4   0   0   4   0   4   0   9  17   4   8  74  21  74 
 55   9   5  21  12   5  13  36  24  21   8   6  29   3   2  27  53  15 
 16   0   7   2   0   6  33   3  11   3   7  30   3   3   3  20  14  23 
  3  10  21  15   5  15  15  15  21  15  14  15  10   5   9  14 124  95 
 51  72  96  80 107  20 144 109  27   3  52  44  46   8   0   5   8   5 
  5   0   0   0   0   0   3   0   5   3   0   4   0   4   0   4   9  13 
  9   4   3  59  45  21   1  14  15  14  10  20   0  28   9  38  21  18 
 14   7   9  13  11  13  24  21  20   4  14  32  65  27   9   0   5  15 
 23  10   3   7   3   5   5  21  21  21  10   5  10   0  15  15  10  15 
  8  29  36 164  54 140  92  45  28  65  75  52  12  49 117  31   2   0 
 39  10  13  10   3   5   8   3   0   3   0   0   0   0   3   3   4  17 
  9  13  13   9   4   9  13  25  53   6  93  29  24  16  19  67   6  13 
 17   9  12  20  21   5   5   7  26  12  18  14  37  38  25  10   5  15 
 23   5  13  28  10  10   8  15  15   5   0   0   5  15  21  15  15  10 
 21  10  23   8   5   4  34 104 139 154 137  15   0   6  51  57  48  15 
 11 152  62  14  22  10  48  15  10   0  13   5   3   5   3  15   3   0 
  5   0   3   5   0   4   4   4   9   4   9  13  17   1  56   1  68  13 
 15   5  29  37  20  11   3   1  15  23  34  10  11   3   8  14   7   4 
 39   1  27   1   3  23   3   8   8  13   3  18   5   5   5   0   0   5 
 15  15  10   5  10   5   5   3  10   5  12  46 104  91 172  75  69  24 
 20  15  19  24  39   5  21  21  67  23  35   7  56  15  10  10  18  10 
 15  13  10  13  10  15  15  10   0   0   5   3   2  13   9   4   9   0 
  4   5  63  42  39  31  15  39   4   4   5  27  13  25  12  17   7   2 
 12   5   8  13  26   9  25   2   2   8   0   5   0   5   3   5  10  18 
  5   0   0   0   0   0   3   5   0  10  15   5   5   3   3   0  27 122 
 79 181  42  11  18  71   1  23  34  17  36  22  23  33  23  14   7   2 
 34  10   5  15  15  10   3  21   3  15   5   5   0  10  10  21   8   3 
  5   2   0   4  17   4   3  17  48  72  10   7  21  14  29  13  19  22 
 21   3  13  13  15   4   1   9   3   3   3   5   1   3   3   8   3   0 
  3  10   3   5   5   0   5   0   0   3   3   5   8   5   5  21  10  10 
 21   3  14   2 150  58 166  21   7  23  25  17  26  19  33   7  45  21 
 44   0  31  24   5  10  38   5   5   7  21  21  10  18  15  10   5   5 
  5  10   5  10  21   3   3  10   3   3   4   0   3  26  14  85   0   2 
 39  30  30   9  15  17  31  27   2   3  19   1  13  14   9   3  10   5 
  5   3   5   3   0   0   0   3   0   5   3  13  23   5   3   1   3   2 
  0   5   5   5   5  23  19   6 105 128  38 175  14  47  21  31  15   2 
  6   9  28  36  15  12  10  12  24   3  10   3  62   5  19  24  12  10 
  5   5  10   5  15   5   5   3   3   0   3  10   3  23   3   5   5   3 
 10  73   4  34   9  39  33  53  41  23  13  16  21  18  13   9  22  15 
  6  13   1   5   8   5   5   8  10   5   0   0   0   0   3   8   3   8 
  5   0   9  20   9  13   9   0   5   5   3  21  78 137   7 140  81   2 
  9  34   6  49  27  15  21   9  15  15  26  32  29  25   0   3  12   7 
 60   5  10   9   5   0   3  18  13  10  15   3   3   8   8   3   3   3 
  0   5   0   0   3   3   9  36  92  25  18  13  29  25  44   5   4   6 
  3   4   4   0   2   3   0   4   0   3   2   0   0   1  10  10   3   0 
  3   0   3   8   3   5   5   5   8   4   4   9  13  13   9  13  23 117 
 62 112 130  17   3  14  25  34   6  33  29  15  16  12  69   2  15  46 
 13   7   2  12   3   3  63   5  10   5   0   3   5   8   5   3   0   8 
  3   3   3   5   8   5   0   3   0   0   0   3  41  34  40   3   6  30 
 27  38   9   9   0  13   4   0   3   2  10   3   0   0   0   4  13   4 
  4  17   1   8   3   5   8   8   8   3   4   0   3   5  10   3   4   9 
 21  26  33 106 117  86 144  33  11   9  43   1  22  24   3  15   9   3 
 37  62  20  52  27  10   3   5   2  19  10   3  72  21  10   5   0   3 
  5   0   3   5   5   3   3   0   3   8   3   8   5  15   5   5   3   8 
 33  20  35   3  30   9  28  19  11  11   1  13   4   3  19  15   6   0 
  0   4   4   4  13   4   0   4   4   3   5   3   3   5  10   2  17   4 
  0   0   2   4   9   4  33  27 144   6 153  70   7   0   9  14  12  11 
 12   2  44  22   9  21   9  15  22  17   2   3   3   2  10   5  14  15 
 70   5   5   5   0   0   5   3   5   8   5   3   3   0   3   5  14  27 
 23  44  29  18   5   9  44  65   9  21  17  18  18   1  35  12   0   4 
  9  13  15   4  13   4   4  13  13   4   9   0   4   4  17   2  10   5 
 10   3   5   4   9   0   4   9  13  17   4  36  86 145 110 164  34  23 
 16   3  10  21   5  25  60   6  28  34   3  11  12  39  14   3   3   0 
 17   7   2   7   9  26  79   0   5   5   0   5   3   8   8  10  10   5 
  5   5   5   3   6   6  23   3  97  28  14   2  44  67   3  47  34  28 
 19  21   1  13  17   0   0   9  13   4   9   4   4   4   9   9  17  13 
 13   4   4   4   3   4   2   3  15  15  13   9  13   4   3  41  31 180 
 18 152  69  96  28  38   5  20  20  29  44  21  15   9  33  32   4   4 
  6   3   2   3   7  18   3  18  11  14  18   3  56  10   5   5  10  10 
 10   8   0   8   1   0   3   3   3  19  15 121  13  74  65   9  84  68 
  5  41   2   9   9  15   8   3  12   5  17  21   4   4  13   9   9   4 
  9   9   9  13  13   9   9   9   9  17   9   9   9   9   2   4   4   4 
  9  18  38 160  94 121 181  15  15  25   5   8  12  22  11  24  13   2 
  9  14  28  22  15   9   3   0   3   0  13  14  20   6   9   0  20  20 
 96  21   7  10  10   0   0  15   8  12  28   3   8   3   3  13  46  35 
 58  58  64  80  46  76  13  18  29  11   6   9   3  13   9   0   4   4 
  0  13   9   4   9   0   4  13   9   9   4   9  17   9   4   9   4   4 
  0   4   9   9   9  25  21 125  64  98 187  51  27   9   8   6  23  30 
 23  18  47  30  13   9   9  14   2   7   3   0   0   3  14  18  21  21 
  6  10   6   9   4   9  60   7  19  19  10   0  10  15  15  41  72  42 
 36   0   6   3  10  44   6  22  57  29   6  60  49   9  12  39  15  12 
 10   8  13   4   0   9  17   0   9  13  13   9   0   4   4   9   9   4 
  9   4  21   9   4   9   0   0   0   4  23  94  92 139 182 118  15  41 
  4   9  21  20  39  11  12  19  23   6  39   1   3  12   7  10   3   0 
  3   0  26   4  29   0  14  10   9  21   0   4 106   2   2  10  15  15 
 10   6  31  43  65   2  12  51  79  24  10  22  57   9  19  48  44  63 
 72  35   8  15  15   7  24  20   9   0   4  13   4   0   4  21   0  13 
  4   0   0   4   4   4  17   4   0   9   4  13   4   0   4  19  85  21 
252  55  86  67   3  36  15  20  14   5  21   5   4   3  11  19  24   2 
  7   0   0   3   0   3  10  18   3  20   3  15  16   7   3   8   8  14 
 92  15  15  15   5   5   9  57  43 143  45  87  30  66  86  41  63  54 
 22  45  27  40  12  68   7   2   1  12   5  20  14   3   9   9   4  17 
 26   4   0   9  21  17   4   0   0   4   0   0   4   4   4   9   4   4 
  0   9  33 104  24 254 113 114  15   0   6  10  30  20   3  62  13  10 
  0  72   3  22   2   7   0   0   0   0   0   7   3  36  50   5   3   7 
  3   4  25   5   5   1  94   5  10  15   0   0   5  12  62  55   5  44 
 13  25  10  63  41  24  42  96 105  89  68  61  19  43   9   2   1   8 
  3   3   1   9   9   9  21   9   4   5   9   4   0   0   4  17   9   4 
  9   9  17  21   4   0   9  21  56  15 234 161  27   9   4  16  51  58 
 25   8  28  28   0   4  39  16   9  24   3   0   0   0   0   0   7  10 
 28  31  11   9  12   6   1  13  15   6  12   3 103   5   0  15  10   0 
  0  10  21  73  65  15  25  10  22  14  15  44   6  16 101  41  33  50 
 18  14  10   3   3   3  18  11   1   1   8   9  13   8   3   7   8   9 
  4   4   0  13   9   3   4   4  13   0   4   4  13   9 104 176  99  39 
  5  10  10   2  24  33   8  21  14  17   8  21   7  46  22   0   0   0 
  0   0   0   7  14  33  17   0   9  19  30   2  35  25  19  15   6   6 
 91  15  15  15  15   5   3   0  10  26  50  49   6  17  53   5  38  33 
 54  74   9  56  12  34   6  12  18   3   7   3   7  19   8   3   2   3 
  3   2   1   5   1   4   4   9  13   9   2   3   1   0   4   4   9  13 
 13  91 178  53  43   9   2  10   3  10  21  27   5   0   5   8  21  13 
  1   2   7   7   3   3   0   3   7  10  27   3   9  12  18  21   1  24 
 36  34   3  18  12  31  94  21  15   3  18   3  10   5   3  21  35  30 
 83  24  62  24  75  37  15  56  39  18   3   3   0   3   5   3   1   5 
  2  15  18  11  11   2   2   1   5  26   8   1   0   0   3   2   2   1 
  1   0   0   0   1   3   2  27  46  61  22   3   5  10   3   7   3  12 
  3   0   0   5   5  15   7  14   3   3   3   7  10   7   7   5  10   6 
 18  18  12   5   9  21  18  26  17  19   0  14 103  15  18  13  13   3 
  0  10   3   5  29  68 116  40  73  38  20  10  54  18   3  10   3  10 
  8   5   1  10  11  20   7  14  17  27  23  15   2   2   3  15   4   2 
  8   2   2   1   0   1   2   1   1   2   2   1   9  28  10  63  26   7 
  3  10   3   7   7  10   3   0   5  21  10   5   0   3   0   0   0   0 
  2   3  14  30  14  38  21  12  15  24   6  30  11  20  36   1  44  15 
101  10  13   3   3   3  45  30  25  20  84   9  92  88   9  46  39  30 
  2  13  10  21   5   8   5   4  17   6   4  11   0   9   8  21   5  14 
  8   3   3  19  12  12  25   5   6   1   0   0   5   5   5   5   0   6 
  6  22  42  16  15  15   5  10  10   3   0   3   5   3   0  10  21   5 
  0   0   0   0   5   5  21   5  25  15  19  27  12  14  44   7   3   4 
 18  20  34  30  32  14 107  18  21   3   3  15  37  27  15   9  53 120 
 43  72  41   8   5   7  13  15   5   3   3   8   0   3   6   9  11  23 
  3  21   9  14  20  17   9  13   3  11  18  12  15  12  19  15   5   6 
 18  12  12  12  18  12  18  21  25  21  41   2   2  14   7   0   3   5 
 24  19   7   0  10   0   0   5   0   5  21   5   5  28   2  47  15  29 
 29   0  18  33   9  27   2   1   7   9   7   0 103   3   3   0   5  42 
 12  33  70  68  31  52  40  18   5   5  10   0  10   4   5  13  23   0 
  8   8  12  14   4  11   4  21   4  24  36  10   4  17   8   6   3  15 
 26   9   0   7   9  15  15  12  18   6   6   1  24  15  28   6  16  18 
 21   7   0   3  14   2   5   7  10   2  21   5   5  24   5   0   5   5 
 28  25  51  29  15  33   4  31  12  21  21  15  10  15  21   2   0   0 
119   5   5   6  66  54  28 110  18  68  57  19  10  10  15  15   3  10 
 15  18   2   3   0   3   8   8   8  19   6  13   4  13  10   3  33  17 
 13  13  13   8  20  12   1   3  24   8  16  19  22   3  17  11   1  39 
  7  14  36   6  44   0  23  15  10   0   2  21   5   3  10   3   5   0 
  3  19   3   5  13   3  14  30  30   5   5  15   8  12  15  21  15   5 
 10  21  10   0   0   0 117  37  65  33  76 111  28  60  62   5   9  10 
 15  10  15   8   3  12   1  13   4   0   5  10   8   5  21  14   9   9 
  9   3   5   4  12  26  17   1  20  11  23  25  11  11  39   9   8   3 
  3  40  15   9  16  11   3  13   6  13   4   6   8   0  15  10   5   5 
  5   0   3   0   0   0   0   3  13   5   3  11  11  19   3  10   3   0 
 10   3   5  15  21  15   5  10   5   0   0   5 179  11  81 104  22  56 
 62   3  10   5   0   3   3   3   0   5   2  15   4   4   4   3   0  23 
  0  22  27   7   6   2   6   5   3  15   5  10   2  14  39   3  42  17 
  7   7   9   9  14   7   7  39   3   2   2  17   9  35  14  13  26   1 
 10  15  15  15  15  15  21  10   0   5   0   5   5   8  18   6  30   4 
  6   3   0   3   3  10   5   5  15  15  15  15   5  15  10   5   5  15 
  1  76  24  50  66   3  30   4   0   5   8   5   3   3   3   0   9   9 
  4   2  17   2  14  15  12  24  22  18   3   3  18   3  15  13  18  13 
 12   9   0   1   0   8   9  31  63  18  15  15   5  15  10   5   5   0 
  2  27   2   0   7  14   3   5   0   5   7  21  15  15  15  13  15  10 
 10  10   0  10   6   2   5   3   0   0   0   3   3   0   5  10   0  15 
 10  10  10   5   0  10 133  47  42   6  28   1  15   3   0   0   3   4 
  0   3   3   2  15   9   2  19  11  17  21  39  17  10  13   5  21  15 
 10   5   3   5  10   3   0   3   9   3   4   3   3   4  26  27  15  10 
 10  10   0   0   0   3  10  12  10   7   3   3   0   0   0   3  14   2 
  5  10   8  15   8   5  10  15   8  23   3   3   3   0   0   0   0   3 
  8   3  10  21  15  21  15  15  10   5   5  10 139   2  25   9   9   0 
  2   4   4   0   4  17   2   8   5  14  27  21  27  18  12  25  23  24 
 12  17  10  10  15  10   5  15  15  15  10  10  10   5   5   8  10   5 
  2  13   8   5   2   5   2   0   0   0   0   0   7   3   7  10  10   7 
  0   0   0   0   3   0   0   5   5   8   5   5  10   8  10   3   0   0 
  0   0   3   0   0   3   8   3  21  15  15  10   0  10  10  10  10   5 
139   9  13  13   9   9  13   9  13   4   4  20  19  16  28   4  18  22 
 38   3  15   7   0   1  15   0   0   5   5   0   0   2   3   5   0   0 
 10   5   5   2   0   7  14   7  19   7  14   7  14   7   0   0   3   3 
 14   7   3   3  10  14   3   3   3   0   0   0   0   0   3   5   0   3 
  5   5   3   5   0   0   0   3  10   3   0   0   3   5  10   5  15  10 
  5  15  15  10   5   5 133  21   0  22   4  13  14  20  20  30  28   9 
 11   9  29  38   7  28   4   1   3  15   5  10  21   5   0   0   0   0 
  3  10   7   3   0   5  21   5   3  14   7  14   7   0   3   0   3   0 
 10  14   7   7  10   7   7  10   7   7  14  10   3   7  10   3   0   0 
  0   3  19  24   2  14   7  10  10  21   5   5   3   0   3   0   0   0 
  5  10  15  10  10  15   5  10   5   0  10  21 133   3  12   9  10   3 
 12  15   2  32  24  18  23  23  10   3   4  27   1   4   8  10   0   0 
  2   0   0   0   0   0   0  10  10   3   0   0   5   0   0   7   3   7 
  0   0   0   0   0   3  14  14  10   7   3  10   3  10  10   7   7  10 
 10  10  10   0   0   0   0   0   3   5   0   2  21  15  10  10  10  23 
 15   3   3   0   0   3  10  15  15  21  10  15  15  21   5  10  21  10 
133  37   6  86  13   7  37  10   3   0  36   4   2   4   5   6   0   6 
 21   5  10  21   2   7  14   7   3   0   0   3   7  14  10   0   3   0 
  0   0   3   7   7  10   3   0   0   0   0   0  10  14  10   3   3   7 
  3  14  14  14   7   3  10  14  14   3   0   3   3   0   0   0   0   0 
 10  21  10  15  15  10   3   5  10   3   3  21  23  15   0  10   0  15 
 21  15  10  15  15  10 174  21  27  44  38  31  31   7   8   3   0   6 
  1   3  22   9   1   0  15   5   0   2  10   7  14   7   7   7   3   7 
 10  14  10   7  14   7   3   3   3  10   7   3   3   3   3   3   0   7 
 14  14  14   7   7  14   7  10  14  10   7  10  10  10   7   3   3   7 
 10   7   3   0   0   0   0   5   0   5   5  10   3  15   0   5  10  23 
 21  21  10  15  15  15  21  15  10   0   5  10 144  15  15  15  53  46 
 31   2  27   3  20   0   5   9  13   1   0  10   5   0   0   0   7   3 
  3   0   0   7   7   7  14  10   3   3   7   7   7   7   7   3   0   3 
  7   7   7   7   7  10  14  14  10  10   7  10   7  10  10   7  10  10 
  7  10  10  14   7   7  14  10   7   3   0   0   0   0   0   0   3   5 
  5   8   5   5  10  21  15  15  14   5   5   5  10  15  15   5   0   0 
255 117 103  98 115 173  95 107  85  77 121 104 113  97 111 113  97 110 
104  98  76  23   3  19  21  27  41  40  10  12  15  13  44  40  46  62 
 47  66  79  78  88  88 105  95  92 109  88 102  98  81  92  85  94  50 
 54  31  23  33  16  44  55  34  58  38  49  66  62  47  72  69  76  84 
 81  73  81  88 116 101 104 107 102  95 102 107  98  97 117  92 100  71 
 64  49  32  27  23  30 
